<?xml version="1.0" encoding="UTF-8"?>
<svg version="1.1" xmlns="http://www.w3.org/2000/svg" width="1024" height="1024">
<path d="M0 0 C337.92 0 675.84 0 1024 0 C1024 337.92 1024 675.84 1024 1024 C686.08 1024 348.16 1024 0 1024 C0 686.08 0 348.16 0 0 Z " fill="#FDFBF9" transform="translate(0,0)"/>
<path d="M0 0 C0.69996094 -0.00773438 1.39992188 -0.01546875 2.12109375 -0.0234375 C10.19455956 1.29415212 14.58040678 5.85975007 20.0625 11.5625 C20.78308594 12.29275391 21.50367188 13.02300781 22.24609375 13.77539062 C25.59696685 17.19594734 28.84961758 20.66757636 31.96875 24.30078125 C36.24325687 29.24760699 40.90748196 33.78945984 45.5625 38.375 C50.88422414 43.61729542 56.08577341 48.86694123 60.94921875 54.5390625 C63.51504598 57.45901116 66.28360496 60.15977575 69.0625 62.875 C72.47192275 66.24215321 75.84686911 69.58287838 78.9375 73.25 C82.41499372 77.35658806 86.24220421 81.09151747 90.0625 84.875 C94.40615018 89.17687427 98.62298764 93.47807907 102.5625 98.15625 C106.23450523 102.2298808 110.19583172 106.02629989 114.09155273 109.88452148 C117.77242998 113.54346971 121.2841616 117.25240091 124.62890625 121.22265625 C128.07138068 125.05458233 131.78916402 128.62001916 135.44946289 132.24243164 C138.99952635 135.76978378 142.3633981 139.36381816 145.59375 143.1875 C149.05016973 147.02796637 152.77552595 150.60654622 156.44702148 154.23999023 C160.01948233 157.78957818 163.40854401 161.40657879 166.66015625 165.25390625 C169.88682211 168.85160556 173.36726232 172.19878855 176.80273438 175.59570312 C180.26652768 179.03552554 183.53382484 182.56062756 186.69140625 186.28515625 C189.2063345 189.09410534 191.88085322 191.72608617 194.5625 194.375 C197.82632297 197.59898381 201.03080119 200.81017821 204 204.3125 C207.68793251 208.65284317 211.75344543 212.5919008 215.80004883 216.59301758 C219.28636489 220.05518948 222.57889882 223.60329114 225.7578125 227.3515625 C228.53789809 230.46862816 231.5329965 233.36849849 234.50732422 236.2980957 C237.77268679 239.53246157 240.82532404 242.86938653 243.734375 246.42578125 C246.4567916 249.32852886 249.51032417 251.82713785 252.5625 254.375 C255.58760958 251.37928676 258.60677875 248.37765195 261.625 245.375 C262.47255859 244.53582031 263.32011719 243.69664062 264.19335938 242.83203125 C267.92342102 239.11637139 271.60169818 235.40638271 275.02734375 231.40625 C280.26101275 225.30859324 286.10608179 219.78960183 291.82421875 214.15234375 C296.37439901 209.64155899 300.76810417 205.09072606 304.93554688 200.22460938 C307.66195034 197.12508467 310.61410424 194.26134146 313.5625 191.375 C317.79656016 187.18961991 321.88082043 182.97820477 325.7265625 178.4296875 C328.22758331 175.63067272 330.89275718 173.01220978 333.5625 170.375 C336.78459655 167.1921196 339.95302463 164.02809869 342.875 160.5625 C346.98815905 155.71811267 351.57486882 151.33862509 356.08642578 146.87060547 C359.81218842 143.1670696 363.3743023 139.41216471 366.76171875 135.39453125 C369.74734963 132.0462207 372.97697753 128.94122801 376.16748047 125.78955078 C378.84885197 123.12828329 381.43779999 120.45313257 383.875 117.5625 C387.37696816 113.43795972 391.22115197 109.67929174 395.0625 105.875 C400.7375027 100.28955591 400.7375027 100.28955591 406.0625 94.375 C410.05964419 89.62839127 414.54373309 85.34478373 418.97070312 81.00390625 C422.06580955 77.95075643 425.04639339 74.86532401 427.875 71.5625 C433.17089027 65.420697 439.05312009 59.84181442 444.82421875 54.15234375 C445.71753906 53.26675781 446.61085938 52.38117188 447.53125 51.46875 C448.32982422 50.68177734 449.12839844 49.89480469 449.95117188 49.08398438 C451.99945366 46.95910268 453.93795004 44.81129187 455.86450195 42.57958984 C459.65711621 38.21027402 463.67493195 34.10094305 467.76171875 30.0078125 C468.89792412 28.86661453 468.89792412 28.86661453 470.05708313 27.70236206 C471.64490301 26.10951585 473.23404699 24.51798853 474.82446289 22.92773438 C477.25890965 20.49108228 479.68522277 18.04651662 482.11132812 15.6015625 C483.66096899 14.04899059 485.21108255 12.49689031 486.76171875 10.9453125 C487.84618538 9.8500676 487.84618538 9.8500676 488.95256042 8.73269653 C489.63039078 8.05794281 490.30822113 7.38318909 491.0065918 6.68798828 C491.59836716 6.0947879 492.19014252 5.50158752 492.79985046 4.89041138 C497.37672084 0.95551604 501.68664281 0.87090217 507.546875 1.01953125 C518.45916678 2.30582471 527.10444679 14.33355043 533.91796875 22.25390625 C538.30705306 27.31350324 543.11961414 31.92013672 547.953125 36.55078125 C552.33845953 40.84475464 555.90567637 44.59974346 556.99609375 50.8671875 C557.01741152 63.87102966 548.72577097 71.14511608 540.09228516 79.85888672 C537.74760833 82.20672669 535.39072245 84.54203848 533.03125 86.875 C531.02792546 88.90368308 529.15042598 90.94949578 527.3125 93.125 C523.78618409 97.2675653 519.92488621 101.04991801 516.0625 104.875 C511.69718008 109.19828 507.45636027 113.52176846 503.49609375 118.22265625 C500.09553059 122.00792958 496.43381622 125.54305265 492.79858398 129.10180664 C489.80049087 132.05605196 486.93148554 135.0571136 484.1875 138.25 C479.49892745 143.68162757 474.34747881 148.63674902 469.234375 153.6640625 C465.04532084 157.81037121 461.0521867 162.03424992 457.2109375 166.50390625 C454.63029044 169.43312412 451.85342608 172.14803001 449.0625 174.875 C445.63212004 178.2627966 442.23965525 181.62722089 439.125 185.3125 C435.248501 189.88851762 430.9372532 194.02486201 426.67822266 198.23974609 C423.11356269 201.78158615 419.72839338 205.38754507 416.48828125 209.23046875 C413.12769892 212.97278051 409.50889516 216.4667545 405.91577148 219.98461914 C402.86008842 222.88818655 402.86008842 222.88818655 400.5625 226.375 C399.9025 226.375 399.2425 226.375 398.5625 226.375 C398.30815186 226.95604492 398.05380371 227.53708984 397.79174805 228.13574219 C396.42976505 230.61679642 394.9193556 232.23018103 392.89453125 234.203125 C392.16556641 234.92113281 391.43660156 235.63914062 390.68554688 236.37890625 C389.92306641 237.12011719 389.16058594 237.86132812 388.375 238.625 C383.48344163 243.4020119 378.76696244 248.21447861 374.3112793 253.40136719 C370.59456654 257.59596525 366.52247393 261.45257346 362.5234375 265.375 C359.27137681 268.58939203 356.12069306 271.82731051 353.140625 275.296875 C349.10456167 279.98347294 344.71964702 284.29010129 340.3125 288.625 C338.72160388 290.19031901 337.13297132 291.75794269 335.546875 293.328125 C334.50611816 294.35147949 334.50611816 294.35147949 333.44433594 295.39550781 C331.26145516 297.61479938 331.26145516 297.61479938 328.5625 301.375 C386.6425 301.375 444.7225 301.375 504.5625 301.375 C497.3025 294.115 490.0425 286.855 482.5625 279.375 C480.2525 276.735 477.9425 274.095 475.5625 271.375 C473.40819784 269.16634134 471.24638129 266.98557366 469.04296875 264.828125 C467.84427345 263.64205602 466.64570942 262.45585436 465.44726562 261.26953125 C463.58821862 259.43541636 461.72757594 257.60297373 459.86450195 255.77294922 C458.04460525 253.9832218 456.23095518 252.18734828 454.41796875 250.390625 C453.85965866 249.84577454 453.30134857 249.30092407 452.72612 248.73956299 C449.15630581 245.1930419 446.96313898 242.57851442 446.0625 237.625 C447.04034337 231.26901809 451.51747328 227.22977095 456.24316406 223.18457031 C460.26320257 219.68525646 464.03404235 216.0016412 467.765625 212.19921875 C469.08841187 210.86380371 470.41133234 209.528521 471.734375 208.19335938 C473.78577533 206.11703227 475.83551498 204.0391132 477.8828125 201.95874023 C479.88104345 199.93035537 481.88541156 197.90819774 483.890625 195.88671875 C484.5010968 195.26278732 485.1115686 194.6388559 485.74053955 193.99601746 C486.31503845 193.4181398 486.88953735 192.84026215 487.48144531 192.24487305 C488.23134735 191.48378487 488.23134735 191.48378487 488.99639893 190.70732117 C491.86023473 188.27098476 494.13510069 187.42338483 497.875 187 C505.81343798 187.80729878 510.76040062 193.147986 516.0625 198.625 C516.68769531 199.25535156 517.31289063 199.88570312 517.95703125 200.53515625 C520.97230917 203.60037666 523.8656655 206.72481064 526.66601562 209.98730469 C531.08742053 215.05814271 535.8478931 219.76672758 540.625 224.5 C541.58501375 225.4555937 542.54472453 226.41149184 543.50415039 227.36767578 C546.52076369 230.3729755 549.54131596 233.37429612 552.5625 236.375 C556.06920151 239.85793011 559.57417466 243.34256502 563.07492065 246.83148193 C564.4613534 248.21153133 565.85087298 249.58847744 567.24047852 250.96533203 C568.09826904 251.81981934 568.95605957 252.67430664 569.83984375 253.5546875 C570.58484131 254.29444824 571.32983887 255.03420898 572.09741211 255.79638672 C574.10936741 257.90099917 576.02240703 260.03808936 577.92558289 262.23907471 C581.29212818 266.11329668 584.82726694 269.76264749 588.47583008 273.37011719 C589.12712891 274.01834946 589.77842773 274.66658173 590.44946289 275.3344574 C591.84841226 276.72631205 593.24849038 278.11703298 594.6496067 279.50670624 C596.86722469 281.70679018 599.08115682 283.91052315 601.29411316 286.11529541 C607.58104289 292.37788523 613.873707 298.63469028 620.1706543 304.88720703 C624.03437498 308.72417111 627.89323127 312.56597167 631.74912071 316.41080475 C633.21646629 317.87194291 634.68570658 319.33118087 636.15686989 320.78847504 C638.20785654 322.82027772 640.25263856 324.85813668 642.29614258 326.89746094 C642.90445419 327.49701096 643.51276581 328.09656097 644.13951111 328.71427917 C644.69589264 329.27196487 645.25227417 329.82965057 645.82551575 330.40423584 C646.30866147 330.88423916 646.79180719 331.36424248 647.2895937 331.85879135 C649.28827165 334.23949509 650.50939985 336.40149728 650.6796875 339.5234375 C650.59976563 340.25820313 650.51984375 340.99296875 650.4375 341.75 C650.34082031 342.84441406 650.34082031 342.84441406 650.2421875 343.9609375 C648.6578502 349.58806652 644.46733486 353.71804714 640.42106628 357.75021362 C639.91622705 358.25605614 639.41138782 358.76189865 638.89125043 359.28306973 C637.21109653 360.9641705 635.52392675 362.63804235 633.83666992 364.31201172 C632.62534077 365.52113786 631.41446061 366.73071395 630.20399475 367.94070435 C627.60198395 370.53978775 624.99685479 373.13568961 622.38924217 375.72915268 C618.26111404 379.8349543 614.14014068 383.94788748 610.02009583 388.0617981 C603.49811001 394.57241151 596.9714695 401.07833561 590.44277507 407.58222115 C578.76258104 419.21809856 567.08790667 430.85950726 555.41852456 442.50622761 C551.32695734 446.58941819 547.23259863 450.66978245 543.13592756 454.74785209 C540.58069164 457.29239232 538.02752875 459.83900528 535.47485924 462.38611984 C534.29669292 463.56083607 533.11765686 464.7346808 531.9376564 465.90755463 C525.92525303 471.88446456 520.0510747 477.90558525 514.5625 484.375 C503.76523349 496.17486983 503.76523349 496.17486983 495.625 496.5625 C490.41557083 495.58320808 487.17583963 492.01915702 483.5625 488.375 C483.03011719 487.87871094 482.49773438 487.38242187 481.94921875 486.87109375 C480.76917961 485.75753569 479.65731254 484.57245122 478.5625 483.375 C478.5625 482.715 478.5625 482.055 478.5625 481.375 C477.6653125 480.9728125 477.6653125 480.9728125 476.75 480.5625 C474.56402146 479.37582594 473.14917406 478.27900887 471.5625 476.375 C471.5625 475.715 471.5625 475.055 471.5625 474.375 C470.5725 474.045 469.5825 473.715 468.5625 473.375 C467.265625 472.0546875 467.265625 472.0546875 465.8125 470.25 C463.29293502 467.23415707 460.64852212 464.45981979 457.8046875 461.75390625 C457.13018555 461.10631348 456.45568359 460.4587207 455.76074219 459.79150391 C454.39555719 458.48837277 453.01878172 457.19726014 451.62988281 455.91943359 C448.50949163 452.91796696 446.75591062 450.95586391 445.3671875 446.78515625 C445.72446153 440.54715165 450.16461944 436.52407612 454.43530273 432.29101562 C454.90578033 431.82185226 455.37625793 431.3526889 455.86099243 430.86930847 C457.40145732 429.33528017 458.94878048 427.80836746 460.49609375 426.28125 C461.57750282 425.2061219 462.65839132 424.13046996 463.73878479 423.05432129 C466.57503576 420.23132271 469.416807 417.41395396 472.26025391 414.59820557 C476.80808149 410.09361617 481.34917262 405.58226236 485.88694954 401.06755066 C487.46482372 399.49981903 489.04610947 397.93559178 490.62779236 396.3717041 C491.60541456 395.40091709 492.58292386 394.43001636 493.56030273 393.45898438 C494.40761459 392.61992554 495.25492645 391.7808667 496.12791443 390.91638184 C497.94085287 389.02391649 499.60020845 387.1452541 501.25013733 385.11975098 C503.5625 382.375 503.5625 382.375 505.5625 381.375 C447.1525 381.375 388.7425 381.375 328.5625 381.375 C337.7713452 391.43152301 337.7713452 391.43152301 347.3125 401.125 C351.59704045 405.36259243 355.74450081 409.61181655 359.62890625 414.22265625 C363.07138068 418.05458233 366.78916402 421.62001916 370.44946289 425.24243164 C373.99952635 428.76978378 377.3633981 432.36381816 380.59375 436.1875 C384.04878768 440.02643075 387.77255462 443.60364904 391.44262695 447.2355957 C395.05977132 450.82953776 398.49895035 454.49227168 401.79296875 458.38671875 C404.1102141 460.99042268 406.58252206 463.42818793 409.0625 465.875 C412.11565531 468.88732408 415.10322329 471.91048804 417.875 475.1875 C421.23138249 479.12901455 424.88567428 482.73638499 428.5625 486.375 C432.81596924 490.58426587 436.92630646 494.81524713 440.79296875 499.38671875 C443.1102141 501.99042268 445.58252206 504.42818793 448.0625 506.875 C451.11565531 509.88732408 454.10322329 512.91048804 456.875 516.1875 C460.23138309 520.12901525 463.88568187 523.73637762 467.5625 527.375 C471.75095164 531.52007609 475.78920725 535.68416368 479.59375 540.1875 C483.04809665 544.02566294 486.77106889 547.60220052 490.44042969 551.23339844 C494.07994028 554.84954138 497.54413558 558.53511478 500.859375 562.453125 C502.99649663 564.86473932 505.27044279 567.11039257 507.5625 569.375 C510.43176241 572.20989999 513.20736711 575.04620659 515.8125 578.125 C519.19279345 582.08477232 522.86471495 585.71568846 526.5625 589.375 C530.81528602 593.58358401 534.9349227 597.80561405 538.78515625 602.390625 C540.66683818 604.49149185 542.67140278 606.43369351 544.70703125 608.38427734 C551.0749932 614.52751241 556.64597553 620.1951456 557.125 629.4375 C557.13875434 637.48378933 551.97630755 643.4233861 546.64762878 648.84565735 C545.49754082 649.98359993 545.49754082 649.98359993 544.32421875 651.14453125 C543.52522659 651.94735031 542.72623444 652.75016937 541.9030304 653.57731628 C540.21931857 655.26373826 538.5305921 656.94516693 536.8371582 658.62182617 C534.25449957 661.18303779 531.6939095 663.76492564 529.13476562 666.34960938 C527.49086453 667.99086759 525.84572323 669.63088475 524.19921875 671.26953125 C523.05823982 672.42265556 523.05823982 672.42265556 521.89421082 673.59907532 C516.69401104 678.70912673 511.72994864 682.79819506 504.0625 682.8125 C503.3715625 682.83183594 502.680625 682.85117187 501.96875 682.87109375 C493.69922335 681.16617511 488.25849711 674.46866367 482.59228516 668.68603516 C481.07307136 667.13578731 479.54356959 665.59634579 478.01171875 664.05859375 C473.19699874 659.20512427 468.51240031 654.27896162 464.06054688 649.08691406 C461.84371011 646.55359277 459.47122669 644.22705077 457.0625 641.875 C453.34129999 638.20934029 449.82565496 634.44331639 446.4375 630.46875 C444.079047 627.83514415 441.57804044 625.35674077 439.0625 622.875 C435.98845865 619.84215183 432.98250801 616.79560646 430.1875 613.5 C427.00120631 609.75956827 423.553706 606.32695692 420.0625 602.875 C415.98617216 598.84449934 412.07696805 594.77265636 408.3671875 590.3984375 C406.03612728 587.78482453 403.55433848 585.33345819 401.0625 582.875 C397.98846596 579.84214525 394.98250842 576.79560694 392.1875 573.5 C389.0012061 569.75956803 385.55370315 566.32695962 382.0625 562.875 C378.0078483 558.86587421 374.12271848 554.81635496 370.43359375 550.46484375 C367.91866506 547.65589417 365.24414192 545.02391902 362.5625 542.375 C359.34040033 539.19212248 356.17197514 536.02809842 353.25 532.5625 C349.13817561 527.71968461 344.55310977 523.34152263 340.04296875 518.875 C336.27250176 515.12706568 332.66037517 511.32646646 329.23046875 507.26171875 C326.30381385 503.95124026 323.10298808 500.90899573 319.9609375 497.8046875 C317.9426527 495.76010583 316.04750482 493.68663982 314.1875 491.5 C311.14819299 487.94213824 307.88886632 484.66057703 304.5625 481.375 C300.64185164 477.50242826 296.90845812 473.56707759 293.3359375 469.3671875 C291.17136582 466.93562019 288.87820547 464.66288919 286.5625 462.375 C283.65196199 459.49942341 280.83825978 456.61625906 278.1875 453.5 C274.66898442 449.38116896 270.83657509 445.61779337 266.98291016 441.81713867 C263.49019165 438.35476764 260.19634668 434.79098621 257.0625 430.99609375 C255.38594111 429.18418766 253.57265798 427.80030598 251.5625 426.375 C246.58459736 431.25131279 241.77899142 436.18710908 237.2421875 441.4765625 C235.0396278 443.96596719 232.67897364 446.2695103 230.30859375 448.59765625 C228.49772357 450.44093574 226.80928646 452.35322799 225.125 454.3125 C222.15644444 457.75921216 219.02170896 460.96610859 215.75 464.125 C213.85513476 466.07400425 212.08547445 468.06658068 210.3125 470.125 C205.96440827 475.13133163 201.2544796 479.73459089 196.5234375 484.375 C192.57211134 488.28055791 188.84026101 492.29089878 185.21484375 496.5 C182.78753715 499.25439047 180.1900784 501.81351326 177.5625 504.375 C174.33839836 507.55555276 171.17173118 510.72219093 168.25 514.1875 C164.13750827 519.03110137 159.55162045 523.40992611 155.04077148 527.87719727 C151.29266424 531.60292497 147.70553103 535.38068487 144.296875 539.421875 C141.5425462 542.52359663 138.55995599 545.39765759 135.60839844 548.30957031 C132.98160667 550.91469782 130.46226978 553.55988545 128.0625 556.375 C124.7801661 560.22543015 121.20995151 563.75645579 117.61157227 567.30639648 C114.36249393 570.52866448 111.33806137 573.86840645 108.37109375 577.34765625 C105.38721996 580.69243054 102.15630268 583.78835157 98.96875 586.9375 C96.90800655 589.02500635 94.96734374 591.14669223 93.0625 593.375 C90.36638859 596.52894165 87.51433025 599.45873397 84.5625 602.375 C81.69323759 605.20989999 78.91763289 608.04620659 76.3125 611.125 C72.93220636 615.08477255 69.2602825 618.71568598 65.5625 622.375 C61.3307114 626.5628562 57.24438796 630.77154876 53.3984375 635.3203125 C50.39960866 638.6764486 47.16315297 641.79388207 43.9621582 644.95581055 C41.23805451 647.65944829 38.60892294 650.38258591 36.125 653.3125 C32.44082805 657.64841736 28.38458345 661.59090833 24.33154297 665.57763672 C21.2948711 668.58090959 18.44786148 671.61944048 15.75 674.9375 C11.90283013 679.39757683 7.95094639 681.80755682 2.11328125 682.78515625 C-5.2527322 683.22508661 -9.90916869 680.40734507 -15.43444824 675.6587677 C-17.49977087 673.70617732 -19.51470888 671.71384201 -21.515625 669.6953125 C-22.61641388 668.59882889 -22.61641388 668.59882889 -23.73944092 667.48019409 C-25.27919988 665.94246496 -26.81522376 664.40098752 -28.34765625 662.85595703 C-30.68424076 660.50328169 -33.0364363 658.16707622 -35.390625 655.83203125 C-36.89158798 654.3290861 -38.39162022 652.82521073 -39.890625 651.3203125 C-40.58859192 650.62841827 -41.28655884 649.93652405 -42.00567627 649.22366333 C-47.40863721 643.74264798 -52.01086004 638.5282264 -52 630.4375 C-51.58044522 619.88307505 -44.32370009 613.72822954 -37.4375 606.375 C-36.35737312 605.20376998 -35.27798867 604.03185498 -34.19921875 602.859375 C-27.93112096 596.0701135 -21.57741936 589.39306775 -14.96386719 582.93823242 C-12.24070498 580.26188292 -9.66986832 577.51993156 -7.18359375 574.62109375 C-2.05739725 568.69421538 3.60086755 563.29242898 9.1796875 557.796875 C13.65705413 553.36033542 17.97125792 548.87112366 22.07421875 544.0859375 C23.96956557 541.90703486 25.99033549 539.88530885 28.0625 537.875 C30.84871141 535.1264401 33.51558392 532.34640209 36.0625 529.375 C38.60941608 526.40359791 41.27628859 523.6235599 44.0625 520.875 C46.80750542 518.16696435 49.4352091 515.43330751 51.9375 512.5 C54.82464877 509.12942167 57.90498516 505.98997507 61.0625 502.875 C64.09479631 499.88322886 67.06404328 496.88347962 69.8125 493.625 C73.95036254 488.76401585 78.55196401 484.3612796 83.08398438 479.87304688 C86.83217259 476.1472359 90.41939397 472.36940406 93.828125 468.328125 C96.5824538 465.22640337 99.56504401 462.35234241 102.51660156 459.44042969 C105.14339333 456.83530218 107.66273022 454.19011455 110.0625 451.375 C112.90372801 448.04202099 115.94671623 444.94891199 119.0625 441.875 C122.15741502 438.82162049 125.18184277 435.75176315 128 432.4375 C131.49893349 428.33152263 135.32082589 424.58918998 139.15551758 420.80151367 C142.5331452 417.44933357 145.70491319 413.99294352 148.7890625 410.3671875 C151.75577981 407.03453149 154.97542191 403.95498349 158.1484375 400.8203125 C160.84235255 398.09152476 163.33988248 395.24292338 165.828125 392.328125 C168.4040107 389.42735281 171.1761102 386.73787197 173.9609375 384.0390625 C175.64878724 382.45077267 175.64878724 382.45077267 176.5625 380.375 C174.79414118 380.38053076 174.79414118 380.38053076 172.99005795 380.38617325 C144.99941552 380.47282189 117.00878356 380.53877067 89.01803514 380.57926132 C85.57216317 380.58426409 82.12629147 380.58944138 78.68041992 380.59472656 C77.9944147 380.5957758 77.30840947 380.59682505 76.60161621 380.59790608 C65.49680869 380.61530694 54.39208408 380.64684284 43.28732573 380.68361118 C31.89111817 380.72102957 20.49497203 380.74293836 9.09869915 380.75135398 C2.69827425 380.75657162 -3.70196266 380.76884665 -10.10232735 380.79792023 C-16.12609303 380.82506153 -22.14959321 380.83344745 -28.17341423 380.82743073 C-30.3845298 380.82853152 -32.59565421 380.83649282 -34.80671692 380.8518219 C-37.82614713 380.87172921 -40.84457544 380.86693597 -43.86402893 380.85601807 C-44.73855715 380.86766943 -45.61308537 380.8793208 -46.51411444 380.89132524 C-52.3089429 380.83470629 -55.68455134 379.7430094 -60.4375 376.375 C-64.07601673 371.68322842 -65.55468056 368.16222544 -65.59863281 362.28027344 C-65.60824036 361.24199402 -65.6178479 360.2037146 -65.62774658 359.13397217 C-65.63199646 358.0121051 -65.63624634 356.89023804 -65.640625 355.734375 C-65.64632507 354.57883118 -65.65202515 353.42328735 -65.65789795 352.23272705 C-65.66735069 349.78488074 -65.67388301 347.33702169 -65.67773438 344.88916016 C-65.68742543 341.15374367 -65.71844114 337.41888073 -65.75 333.68359375 C-65.75653159 331.30469077 -65.76178145 328.92578385 -65.765625 326.546875 C-65.7779718 325.43310486 -65.7903186 324.31933472 -65.80303955 323.17181396 C-65.78577394 317.12595497 -65.44663409 312.67458874 -62.4375 307.375 C-57.1259479 302.45209805 -53.4552795 302.2244795 -46.42733765 302.21678162 C-45.00982348 302.20937465 -45.00982348 302.20937465 -43.56367266 302.20181805 C-40.37757399 302.18638454 -37.19149555 302.17806663 -34.00537109 302.16967773 C-31.72924113 302.16010381 -29.45311296 302.15009402 -27.17698669 302.13967896 C-20.98103319 302.11257123 -14.78507201 302.0915935 -8.58909178 302.07167697 C-2.1201407 302.04985352 4.34878659 302.02244706 10.81771851 301.99562073 C21.68087779 301.95132907 32.54404429 301.91050219 43.40722656 301.87231445 C54.59766593 301.83296685 65.78809443 301.79154239 76.97851562 301.74731445 C77.66798616 301.74459018 78.35745669 301.74186591 79.06782027 301.73905908 C82.52659959 301.72537973 85.98537876 301.71165943 89.44415784 301.69791877 C118.15024911 301.58393138 146.85636448 301.47720058 175.5625 301.375 C175.11447021 300.89929565 174.66644043 300.42359131 174.20483398 299.93347168 C172.1363846 297.73705912 170.06819107 295.5404058 168 293.34375 C167.29552734 292.59577148 166.59105469 291.84779297 165.86523438 291.07714844 C161.41895292 286.354255 156.98423852 281.6208756 152.5625 276.875 C146.9079483 270.80864611 141.2297445 264.76502517 135.54101562 258.73071289 C131.63456748 254.58461991 127.74370046 250.4246961 123.86547852 246.25219727 C119.09002632 241.11462547 114.28426936 236.04322242 109.28125 231.125 C106.86772284 228.66759053 104.65387609 226.05311658 102.41015625 223.44140625 C100.37339408 221.16350522 98.23775925 219.02081412 96.0625 216.875 C93.31749458 214.16696435 90.6897909 211.43330751 88.1875 208.5 C85.30035181 205.12942235 82.22002622 201.98996479 79.0625 198.875 C75.96757759 195.82162714 72.94315683 192.75176268 70.125 189.4375 C67.10897196 185.89820926 63.86802422 182.64005255 60.5625 179.375 C56.66354317 175.52378063 52.95425703 171.61078271 49.40234375 167.43359375 C47.05754885 164.81001219 44.56618885 162.34510483 42.0625 159.875 C39.00933745 156.86268243 36.0217763 153.83951147 33.25 150.5625 C29.36393317 145.99895905 25.07962623 141.83914144 20.79956055 137.64916992 C17.79081997 134.68440813 14.91178681 131.67147107 12.15625 128.46875 C8.33964387 124.04727996 4.22778078 119.96576771 0.0625 115.875 C-4.06074574 111.82551536 -8.137617 107.79141052 -11.90625 103.40625 C-15.84937392 98.82321339 -20.12860398 94.61159911 -24.4375 90.375 C-29.44444913 85.45206008 -34.32218343 80.51115308 -38.86254883 75.15039062 C-40.52471366 73.27668692 -42.29080347 71.57925832 -44.125 69.875 C-49.983462 64.016538 -51.83771203 58.60042768 -52.1640625 50.37890625 C-50.17210293 42.14333148 -43.2441384 35.73367298 -37.40625 29.9453125 C-36.65210815 29.18830048 -35.89796631 28.43128845 -35.12097168 27.65133667 C-33.53794304 26.06628081 -31.95117687 24.48494957 -30.36083984 22.90722656 C-27.93360162 20.49612754 -25.5228814 18.06933729 -23.11328125 15.640625 C-21.5660657 14.0953908 -20.01792036 12.5510869 -18.46875 11.0078125 C-17.75295776 10.28594757 -17.03716553 9.56408264 -16.29968262 8.82034302 C-11.58058948 4.16678897 -7.01044853 -0.07717925 0 0 Z " fill="#C62A29" transform="translate(232.4375,148.625)"/>
<path d="M0 0 C5.87986924 2.83078735 9.98842195 6.58958638 14.5 11.25 C15.12519531 11.88035156 15.75039063 12.51070313 16.39453125 13.16015625 C19.40980917 16.22537666 22.3031655 19.34981064 25.10351562 22.61230469 C29.52492053 27.68314271 34.2853931 32.39172758 39.0625 37.125 C40.02251375 38.0805937 40.98222453 39.03649184 41.94165039 39.99267578 C44.95826369 42.9979755 47.97881596 45.99929612 51 49 C54.50670151 52.48293011 58.01167466 55.96756502 61.51242065 59.45648193 C62.8988534 60.83653133 64.28837298 62.21347744 65.67797852 63.59033203 C66.53576904 64.44481934 67.39355957 65.29930664 68.27734375 66.1796875 C69.02234131 66.91944824 69.76733887 67.65920898 70.53491211 68.42138672 C72.54686741 70.52599917 74.45990703 72.66308936 76.36308289 74.86407471 C79.72962818 78.73829668 83.26476694 82.38764749 86.91333008 85.99511719 C87.89027832 86.96746559 87.89027832 86.96746559 88.88696289 87.9594574 C90.28591226 89.35131205 91.68599038 90.74203298 93.0871067 92.13170624 C95.30472469 94.33179018 97.51865682 96.53552315 99.73161316 98.74029541 C106.01854289 105.00288523 112.311207 111.25969028 118.6081543 117.51220703 C122.47187498 121.34917111 126.33073127 125.19097167 130.18662071 129.03580475 C131.65396629 130.49694291 133.12320658 131.95618087 134.59436989 133.41347504 C136.64535654 135.44527772 138.69013856 137.48313668 140.73364258 139.52246094 C141.34195419 140.12201096 141.95026581 140.72156097 142.57701111 141.33927917 C143.4115834 142.17580772 143.4115834 142.17580772 144.26301575 143.02923584 C144.74616147 143.50923916 145.22930719 143.98924248 145.7270937 144.48379135 C147.72577165 146.86449509 148.94689985 149.02649728 149.1171875 152.1484375 C149.03726562 152.88320313 148.95734375 153.61796875 148.875 154.375 C148.77832031 155.46941406 148.77832031 155.46941406 148.6796875 156.5859375 C147.0953502 162.21306652 142.90483486 166.34304714 138.85856628 170.37521362 C138.35372705 170.88105614 137.84888782 171.38689865 137.32875043 171.90806973 C135.64859653 173.5891705 133.96142675 175.26304235 132.27416992 176.93701172 C131.06284077 178.14613786 129.85196061 179.35571395 128.64149475 180.56570435 C126.03948395 183.16478775 123.43435479 185.76068961 120.82674217 188.35415268 C116.69861404 192.4599543 112.57764068 196.57288748 108.45759583 200.6867981 C101.93561001 207.19741151 95.4089695 213.70333561 88.88027507 220.20722115 C77.20008104 231.84309856 65.52540667 243.48450726 53.85602456 255.13122761 C49.76445734 259.21441819 45.67009863 263.29478245 41.57342756 267.37285209 C39.01819164 269.91739232 36.46502875 272.46400528 33.91235924 275.01111984 C32.73419292 276.18583607 31.55515686 277.3596808 30.3751564 278.53255463 C24.36275303 284.50946456 18.4885747 290.53058525 13 297 C2.20273349 308.79986983 2.20273349 308.79986983 -5.9375 309.1875 C-11.14692917 308.20820808 -14.38666037 304.64415702 -18 301 C-18.79857422 300.25556641 -18.79857422 300.25556641 -19.61328125 299.49609375 C-20.79332039 298.38253569 -21.90518746 297.19745122 -23 296 C-23 295.34 -23 294.68 -23 294 C-23.598125 293.731875 -24.19625 293.46375 -24.8125 293.1875 C-26.99847854 292.00082594 -28.41332594 290.90400887 -30 289 C-30 288.34 -30 287.68 -30 287 C-30.99 286.67 -31.98 286.34 -33 286 C-34.296875 284.6796875 -34.296875 284.6796875 -35.75 282.875 C-38.26956498 279.85915707 -40.91397788 277.08481979 -43.7578125 274.37890625 C-44.76956543 273.40751709 -44.76956543 273.40751709 -45.80175781 272.41650391 C-47.16694281 271.11337277 -48.54371828 269.82226014 -49.93261719 268.54443359 C-53.05300837 265.54296696 -54.80658938 263.58086391 -56.1953125 259.41015625 C-55.83803847 253.17215165 -51.39788056 249.14907612 -47.12719727 244.91601562 C-46.65671967 244.44685226 -46.18624207 243.9776889 -45.70150757 243.49430847 C-44.16104268 241.96028017 -42.61371952 240.43336746 -41.06640625 238.90625 C-39.98499718 237.8311219 -38.90410868 236.75546996 -37.82371521 235.67932129 C-34.98746424 232.85632271 -32.145693 230.03895396 -29.30224609 227.22320557 C-24.75441851 222.71861617 -20.21332738 218.20726236 -15.67555046 213.69255066 C-14.09767628 212.12481903 -12.51639053 210.56059178 -10.93470764 208.9967041 C-9.95708544 208.02591709 -8.97957614 207.05501636 -8.00219727 206.08398438 C-7.15488541 205.24492554 -6.30757355 204.4058667 -5.43458557 203.54138184 C-3.62164713 201.64891649 -1.96229155 199.7702541 -0.31236267 197.74475098 C2 195 2 195 4 194 C3.08762164 194.00498599 2.17524328 194.00997198 1.23521709 194.01510906 C-20.9919943 194.13278292 -43.21863746 194.18947909 -65.44617176 194.17878246 C-76.19546786 194.17507128 -86.94399845 194.19179755 -97.69311523 194.25708008 C-107.06502244 194.31394608 -116.4360757 194.33201392 -125.80812758 194.3040064 C-130.76836319 194.29052457 -135.72688294 194.29612119 -140.68689919 194.34822655 C-145.36219233 194.39672669 -150.03463337 194.39308459 -154.70995712 194.35058594 C-156.41951956 194.34402855 -158.12927708 194.35602445 -159.83854103 194.38863564 C-167.46411934 194.52479526 -174.08193061 194.62608853 -179.95207471 189.1717723 C-182.12183691 186.89394757 -184.07533922 184.48651037 -186 182 C-187.19384959 180.62568665 -188.39276684 179.25571715 -189.6015625 177.89453125 C-190.14200195 177.26240723 -190.68244141 176.6302832 -191.23925781 175.97900391 C-195.51854409 171.16925701 -200.24585884 166.76131702 -204.85546875 162.27148438 C-205.63277344 161.50513672 -206.41007813 160.73878906 -207.2109375 159.94921875 C-208.26740479 158.91800903 -208.26740479 158.91800903 -209.34521484 157.8659668 C-211 156 -211 156 -212 153 C-211.2793335 152.28457031 -210.55866699 151.56914062 -209.81616211 150.83203125 C-207.10927088 148.14342116 -204.40583901 145.45135438 -201.70336914 142.75830078 C-200.53957726 141.59949681 -199.37488451 140.44159678 -198.20922852 139.28466797 C-189.61649369 130.78682551 -189.61649369 130.78682551 -181.56469727 121.78125 C-180.79017212 120.89953125 -180.79017212 120.89953125 -180 120 C-179.29450421 119.15144597 -178.58900843 118.30289194 -177.86213398 117.42862415 C-174.22285417 114.34056367 -172.36890062 114.37075878 -167.64115906 114.36076355 C-166.91001461 114.35240787 -166.17887017 114.3440522 -165.42556983 114.33544332 C-162.9807353 114.31353222 -160.53740567 114.32711341 -158.0925293 114.34057617 C-156.33810791 114.33212259 -154.58369592 114.32147832 -152.82929993 114.30880737 C-148.06928657 114.28063887 -143.3097235 114.28313656 -138.54965186 114.29110122 C-133.57411522 114.29422412 -128.59872252 114.26919827 -123.62324524 114.24714661 C-114.20273872 114.20967724 -104.78237656 114.1975569 -95.36180288 114.1945222 C-84.63630743 114.18983452 -73.91095689 114.15692049 -63.1855253 114.12162435 C-41.12370002 114.04965442 -19.06193358 114.01316741 3 114 C2.3702124 113.37544922 1.7404248 112.75089844 1.09155273 112.10742188 C-1.27935645 109.75371686 -3.647874 107.39765427 -6.01489258 105.04003906 C-7.03317292 104.02673848 -8.05235474 103.01434288 -9.07250977 102.00292969 C-14.41076847 96.70922199 -19.68793955 91.40969555 -24.55430126 85.67023849 C-27.05621693 82.77973597 -29.78958557 80.12612315 -32.51953125 77.453125 C-33.71822655 76.26705602 -34.91679058 75.08085436 -36.11523438 73.89453125 C-37.97428138 72.06041636 -39.83492406 70.22797373 -41.69799805 68.39794922 C-43.51789475 66.6082218 -45.33154482 64.81234828 -47.14453125 63.015625 C-47.70284134 62.47077454 -48.26115143 61.92592407 -48.83638 61.36456299 C-52.40619419 57.8180419 -54.59936102 55.20351442 -55.5 50.25 C-54.52215663 43.89401809 -50.04502672 39.85477095 -45.31933594 35.80957031 C-41.29929743 32.31025646 -37.52845765 28.6266412 -33.796875 24.82421875 C-32.47408813 23.48880371 -31.15116766 22.153521 -29.828125 20.81835938 C-27.77672467 18.74203227 -25.72698502 16.6641132 -23.6796875 14.58374023 C-21.68145655 12.55535537 -19.67708844 10.53319774 -17.671875 8.51171875 C-17.0614032 7.88778732 -16.4509314 7.2638559 -15.82196045 6.62101746 C-15.24746155 6.0431398 -14.67296265 5.46526215 -14.08105469 4.86987305 C-13.58112 4.36248093 -13.0811853 3.85508881 -12.56610107 3.33232117 C-8.58707109 -0.05273868 -5.17009409 -0.52577228 0 0 Z " fill="#161E21" transform="translate(734,336)"/>
<path d="M0 0 C0.93835967 -0.01567131 1.87671934 -0.03134261 2.84351414 -0.04748881 C6.00818288 -0.09856609 9.17290585 -0.14208095 12.33769226 -0.18521118 C14.59945385 -0.21928915 16.86121325 -0.25351297 19.12297058 -0.28787231 C39.83750849 -0.59144968 60.55350169 -0.76759902 81.26971149 -0.90862083 C84.04676892 -0.9278656 86.8238234 -0.9474886 89.60087585 -0.96743774 C90.29104957 -0.97238076 90.98122329 -0.97732378 91.69231137 -0.98241659 C102.83078537 -1.06442566 113.96683159 -1.22360951 125.10394392 -1.41277806 C136.56132588 -1.60574886 148.01703158 -1.71582903 159.47602528 -1.75496256 C165.90137666 -1.77935945 172.32161794 -1.83951933 178.74537086 -1.98933029 C223.64881399 -2.9943081 223.64881399 -2.9943081 234.80515575 7.53015709 C238.02977043 11.04980566 240.80700524 14.65509529 243.3732357 18.67786789 C247.27289362 24.66813196 252.42025125 29.75858175 257.49272156 34.76156616 C258.3576825 35.61750366 259.22264343 36.47344116 260.11381531 37.35531616 C260.75447937 37.98437866 261.39514343 38.61344116 262.05522156 39.26156616 C257.7130493 44.39991484 253.23160726 49.3665146 248.61772156 54.26156616 C248.00735046 54.91512085 247.39697937 55.56867554 246.76811218 56.24203491 C245.43375516 57.66020499 244.07923381 59.05960803 242.70764923 60.44180584 C240.70399257 62.57186639 238.91894141 64.67656042 237.11440277 66.96289539 C231.44737015 73.78652809 226.40658791 78.90591329 217.30329895 79.94579446 C212.2468527 80.2091984 207.22641065 80.14578629 202.16654968 80.02792358 C199.88999411 80.03024499 197.61343731 80.03913117 195.33692932 80.05403137 C189.19536989 80.07529927 183.0580928 80.00400179 176.91728401 79.9142015 C170.47719132 79.83490835 164.03710597 79.83822278 157.59660339 79.83146667 C146.79259458 79.80848576 135.99040164 79.73046893 125.1870575 79.61288452 C114.08476307 79.49214421 102.98334475 79.41437326 91.88041687 79.38729858 C91.19533257 79.38561934 90.51024827 79.3839401 89.80440384 79.38220998 C87.05011946 79.37553974 84.29583498 79.36891637 81.54155019 79.36241574 C70.29208972 79.33451208 59.04280393 79.2700419 47.79352379 79.20181489 C43.96312744 79.17954454 40.13272463 79.1611828 36.30230713 79.14296532 C30.28714433 79.11169227 24.27254074 79.0585332 18.2577095 78.9883976 C16.05149359 78.96554291 13.84519732 78.94933242 11.63888168 78.94026184 C8.62661297 78.92652951 5.61562895 78.88825132 2.60368347 78.84352112 C1.73160515 78.84494069 0.85952683 78.84636026 -0.0389781 78.84782284 C-5.80391185 78.72572978 -9.21057014 77.60479075 -13.94477844 74.26156616 C-17.58329518 69.56979458 -19.061959 66.0487916 -19.10591125 60.1668396 C-19.1155188 59.12856018 -19.12512634 58.09028076 -19.13502502 57.02053833 C-19.1392749 55.89867126 -19.14352478 54.7768042 -19.14790344 53.62094116 C-19.15360352 52.46539734 -19.15930359 51.30985352 -19.16517639 50.11929321 C-19.17462913 47.6714469 -19.18116146 45.22358785 -19.18501282 42.77572632 C-19.19470387 39.04030983 -19.22571958 35.3054469 -19.25727844 31.57015991 C-19.26381004 29.19125693 -19.26905989 26.81235001 -19.27290344 24.43344116 C-19.28525024 23.31967102 -19.29759705 22.20590088 -19.31031799 21.05838013 C-19.29305239 15.01252113 -18.95391253 10.5611549 -15.94477844 5.26156616 C-10.67358318 0.37606811 -6.97777815 0.08982904 0 0 Z " fill="#161E21" transform="translate(185.9447784423828,450.7384338378906)"/>
<path d="M0 0 C0.66 0.33 1.32 0.66 2 1 C1.82557373 1.50394287 1.65114746 2.00788574 1.47143555 2.52709961 C0.8249305 5.91832159 1.17999145 9.1531461 1.45703125 12.56640625 C2.06169239 21.25289119 2.02352612 29.85416691 1.75805664 38.5534668 C1.68600673 40.98795599 1.63261773 43.42244128 1.58007812 45.85742188 C1.53755966 47.41409297 1.49398242 48.9707356 1.44921875 50.52734375 C1.43453049 51.25114731 1.41984222 51.97495087 1.40470886 52.72068787 C1.22950549 57.77049451 1.22950549 57.77049451 -1 60 C-2.25114742 57.49770517 -2.13368792 55.78706275 -2.14526367 52.98706055 C-2.15164352 51.94225021 -2.15802338 50.89743988 -2.16459656 49.82096863 C-2.16570938 48.68766617 -2.1668222 47.55436371 -2.16796875 46.38671875 C-2.17129715 45.22501663 -2.17462555 44.06331451 -2.17805481 42.8664093 C-2.18312563 40.40418901 -2.18546309 37.94196183 -2.18530273 35.47973633 C-2.18748488 31.71358879 -2.20562729 27.94773612 -2.22460938 24.18164062 C-2.22754412 21.79166767 -2.22952837 19.40169332 -2.23046875 17.01171875 C-2.23765427 15.88448898 -2.24483978 14.75725922 -2.25224304 13.59587097 C-2.24916641 12.54160416 -2.24608978 11.48733734 -2.24291992 10.40112305 C-2.24434494 9.47671921 -2.24576996 8.55231537 -2.24723816 7.59989929 C-1.97669154 4.75489359 -1.17952682 2.58996611 0 0 Z " fill="#212527" transform="translate(169,458)"/>
<path d="M0 0 C9.16757038 7.46197589 17.59329665 16.00064908 25.234375 25.01171875 C28.9530246 29.1993131 33.00542765 33.07776397 37 37 C36.505 37.99 36.505 37.99 36 39 C32.97489042 36.00428676 29.95572125 33.00265195 26.9375 30 C26.08994141 29.16082031 25.24238281 28.32164062 24.36914062 27.45703125 C19.92121954 23.0262836 15.63996603 18.53338362 11.55249023 13.76855469 C8.54800504 10.3459268 5.22063261 7.25861202 1.94140625 4.1015625 C0 2 0 2 0 0 Z " fill="#BD1917" transform="translate(708,686)"/>
<path d="M0 0 C4.69086193 3.83797794 9.06661728 7.9304381 13.375 12.1875 C13.91092773 12.71053711 14.44685547 13.23357422 14.99902344 13.77246094 C17.39414864 16.16144873 18.91516794 17.74550381 20 21 C16.80636047 19.62140072 15.00638231 18.11891172 12.8125 15.4375 C9.35160043 11.32203899 5.6032396 7.60143494 1.72265625 3.8828125 C0 2 0 2 0 0 Z " fill="#BE1A17" transform="translate(375,290)"/>
<path d="M0 0 C0.33 0.99 0.66 1.98 1 3 C0.03900391 3.85271484 0.03900391 3.85271484 -0.94140625 4.72265625 C-6.11530342 9.34138114 -11.16792647 14.02392428 -16 19 C-16 16 -16 16 -14.53125 14.19067383 C-13.8609375 13.53607178 -13.190625 12.88146973 -12.5 12.20703125 C-11.778125 11.49482422 -11.05625 10.78261719 -10.3125 10.04882812 C-9.549375 9.31083984 -8.78625 8.57285156 -8 7.8125 C-6.8553125 6.68811523 -6.8553125 6.68811523 -5.6875 5.54101562 C-3.79819161 3.68713177 -1.90224794 1.84058931 0 0 Z " fill="#BB1310" transform="translate(552,334)"/>
<path d="M0 0 C1.98 0 3.96 0 6 0 C6 0.99 6 1.98 6 3 C3.69 2.67 1.38 2.34 -1 2 C-0.67 1.34 -0.34 0.68 0 0 Z " fill="#232728" transform="translate(726,642)"/>
<path d="M0 0 C0 3 0 3 -1.25 4.75 C-3 6 -3 6 -5.1875 5.6875 C-5.785625 5.460625 -6.38375 5.23375 -7 5 C-4.702779 3.25728062 -2.40133271 1.60088848 0 0 Z " fill="#C83533" transform="translate(365,578)"/>
<path d="M0 0 C3.36720387 1.39332574 4.9859524 2.9789286 7 6 C4 6 4 6 1.3125 3.5 C0.549375 2.675 -0.21375 1.85 -1 1 C-0.67 0.67 -0.34 0.34 0 0 Z " fill="#282C2E" transform="translate(749,350)"/>
</svg>
