<svg xmlns="http://www.w3.org/2000/svg" xmlns:xlink="http://www.w3.org/1999/xlink" viewBox="0 0 362.13 124.49"><defs><style>.cls-1{fill:#97c61e;}.cls-2,.cls-4{fill:#fff;}.cls-2,.cls-3{opacity:0.83;}.cls-5{fill:#354681;}.cls-6{fill:url(#Dégradé_sans_nom_19);}</style><linearGradient id="Dégradé_sans_nom_19" x1="285.77" y1="61.89" x2="305.77" y2="35.75" gradientUnits="userSpaceOnUse"><stop offset="0" stop-color="#326daf"/><stop offset="1" stop-color="#97c61e"/></linearGradient></defs><title>Fichier 1</title><g id="Calque_2" data-name="Calque 2"><g id="Calque_1-2" data-name="Calque 1"><rect class="cls-1" x="34.17" y="1.75" width="10.54" height="11.68" transform="translate(0.82 18.63) rotate(-26.85)"/><rect class="cls-1" x="50.68" y="1.75" width="10.54" height="11.68" transform="translate(102.43 39.63) rotate(-153.15)"/><rect class="cls-2" x="39.17" y="1.74" width="0.54" height="11.69" transform="translate(1.38 20.41) rotate(-29.51)"/><rect class="cls-2" x="49.9" y="7.22" width="11.69" height="0.54" transform="translate(23.92 53.86) rotate(-63.19)"/><rect class="cls-1" x="42.18" y="10.4" width="10.54" height="22.36"/><g class="cls-3"><rect class="cls-4" x="47.18" y="10.42" width="0.54" height="22.34" transform="matrix(1, -0.01, 0.01, 1, -0.17, 0.38)"/></g><rect class="cls-1" x="6.6" y="21.84" width="10.54" height="11.68" transform="translate(-17.86 32.47) rotate(-75.94)"/><rect class="cls-1" x="17.41" y="9.36" width="10.54" height="11.68" transform="translate(49.43 20.69) rotate(157.76)"/><rect class="cls-2" x="11.6" y="21.83" width="0.54" height="11.69" transform="translate(-17.6 33.84) rotate(-78.59)"/><rect class="cls-2" x="22.2" y="9.44" width="0.54" height="11.69" transform="translate(-4.12 9.65) rotate(-22.26)"/><rect class="cls-1" x="22.42" y="19.6" width="10.54" height="22.36" transform="translate(-13.71 31.55) rotate(-49.09)"/><rect class="cls-2" x="27.43" y="19.62" width="0.54" height="22.34" transform="translate(-13.7 31.89) rotate(-49.54)"/><rect class="cls-1" x="5.71" y="58.19" width="10.54" height="11.68" transform="translate(-29.77 114.63) rotate(-131.42)"/><rect class="cls-1" x="1.56" y="42.22" width="10.54" height="11.68" transform="translate(55.24 51.61) rotate(102.28)"/><rect class="cls-2" x="5.13" y="63.76" width="11.69" height="0.54" transform="matrix(0.72, -0.7, 0.7, 0.72, -41.44, 25.65)"/><rect class="cls-2" x="6.51" y="42.43" width="0.54" height="11.69" transform="translate(-41.84 44.65) rotate(-77.74)"/><rect class="cls-1" x="17.23" y="41.58" width="10.54" height="22.36" transform="translate(-22.9 87.81) rotate(-104.57)"/><rect class="cls-2" x="11.34" y="52.48" width="22.34" height="0.54" transform="translate(-12.92 7.65) rotate(-15.04)"/><rect class="cls-1" x="67.29" y="9.03" width="10.54" height="11.68" transform="matrix(0.94, 0.34, -0.34, 0.94, 9.32, -23.69)"/><rect class="cls-1" x="78.62" y="21.03" width="10.54" height="11.68" transform="translate(81.96 114.94) rotate(-106.51)"/><rect class="cls-2" x="66.71" y="14.6" width="11.69" height="0.54" transform="translate(36.98 79.83) rotate(-72.87)"/><rect class="cls-2" x="77.98" y="26.38" width="11.69" height="0.54" transform="translate(-4.12 25) rotate(-16.57)"/><rect class="cls-1" x="62.62" y="19.12" width="10.54" height="22.36" transform="translate(43.31 -39.86) rotate(46.64)"/><rect class="cls-2" x="56.71" y="30.03" width="22.34" height="0.54" transform="translate(-2.09 55.4) rotate(-43.79)"/><rect class="cls-1" x="84.34" y="43.52" width="10.54" height="11.68" transform="translate(120.36 -48.22) rotate(78.64)"/><rect class="cls-1" x="79.93" y="59.43" width="10.54" height="11.68" transform="translate(-20.43 84.28) rotate(-47.66)"/><g class="cls-3"><rect class="cls-4" x="83.77" y="49.09" width="11.69" height="0.54" transform="translate(-9.27 23.11) rotate(-13.98)"/></g><rect class="cls-2" x="85.08" y="59.25" width="0.54" height="11.69" transform="translate(-20.25 84.38) rotate(-47.68)"/><rect class="cls-1" x="68.72" y="42.17" width="10.54" height="22.36" transform="translate(145.16 -3.71) rotate(105.49)"/><rect class="cls-2" x="73.71" y="42.18" width="0.54" height="22.34" transform="translate(3.27 110.95) rotate(-74.96)"/><path class="cls-5" d="M41.12,65s-1.26,40-22.66,59.52c0,0,18.89-18.08,20-59.72a1.33,1.33,0,0,1,1.48-1.51C41.43,63.37,41.12,65,41.12,65Z"/><path class="cls-5" d="M55.48,65s1.26,40,22.66,59.52c0,0-18.89-18.08-20-59.72a1.33,1.33,0,0,0-1.48-1.51C55.17,63.37,55.48,65,55.48,65Z"/><path class="cls-5" d="M131.9,33.56V74.37h19.84v9h-30V33.56Z"/><path class="cls-5" d="M172.93,33.56V83.33H162.62V33.56Z"/><path class="cls-5" d="M223.45,62.82a12.67,12.67,0,0,0-4.16-4.27,18.62,18.62,0,0,0-4.64-2.09A13.37,13.37,0,0,0,220,52.65a10,10,0,0,0,2.17-6.51,11.64,11.64,0,0,0-1.24-5.54,10.9,10.9,0,0,0-3.49-3.91,16,16,0,0,0-5.29-2.35,27.34,27.34,0,0,0-6.76-.78H188.78V83.33h17.57a29.15,29.15,0,0,0,9.74-1.49,13.58,13.58,0,0,0,6.54-4.66A13.22,13.22,0,0,0,225,69.11,12.19,12.19,0,0,0,223.45,62.82Zm-19-21.16a8.21,8.21,0,0,1,5.26,1.53,5.19,5.19,0,0,1,1.92,4.3,5.5,5.5,0,0,1-3.38,5.27,9.34,9.34,0,0,1-3.8.71H199V41.66ZM213.28,72a6.8,6.8,0,0,1-3.2,2.42,12.7,12.7,0,0,1-4.59.78H199V60.86h6.54a13.84,13.84,0,0,1,3.56.43,9.09,9.09,0,0,1,2.84,1.24,5.7,5.7,0,0,1,1.89,2.13,6.9,6.9,0,0,1,.67,3.17A7,7,0,0,1,213.28,72Z"/><path class="cls-5" d="M249.08,33.56V83.33H238.77V33.56Z"/><path class="cls-6" d="M264,48a24.22,24.22,0,0,1,5.52-8.18,25.38,25.38,0,0,1,8.35-5.37,29.32,29.32,0,0,1,20.87,0,25.91,25.91,0,0,1,8.35,5.37A23.87,23.87,0,0,1,312.68,48a27,27,0,0,1,1.95,10.41,27.46,27.46,0,0,1-1.95,10.38,24.57,24.57,0,0,1-13.8,13.83,29.4,29.4,0,0,1-21.11,0,24.83,24.83,0,0,1-8.32-5.47A24.46,24.46,0,0,1,264,68.86a27.79,27.79,0,0,1-1.92-10.42A27,27,0,0,1,264,48ZM274,65a15.67,15.67,0,0,0,3.2,5.23,14.36,14.36,0,0,0,4.91,3.41,16.77,16.77,0,0,0,12.51,0,14.36,14.36,0,0,0,4.91-3.41,15.73,15.73,0,0,0,3.2-5.2,18.19,18.19,0,0,0,1.14-6.54,19.39,19.39,0,0,0-1.07-6.5,14.6,14.6,0,0,0-3.13-5.23,14.32,14.32,0,0,0-4.9-3.41,17.16,17.16,0,0,0-12.66,0,14.36,14.36,0,0,0-4.91,3.41A15.79,15.79,0,0,0,274,51.9,19.4,19.4,0,0,0,274,65Z"/><path class="cls-5" d="M335.43,71.38a14.75,14.75,0,0,0,4.16,3.24,10.58,10.58,0,0,0,4.91,1.17,8.37,8.37,0,0,0,3.59-.71A5.37,5.37,0,0,0,351.32,70a5.78,5.78,0,0,0-1.17-3.73,9.89,9.89,0,0,0-3.45-2.56c-1.52-.73-3.39-1.53-5.62-2.38-1.23-.48-2.6-1.07-4.12-1.78a19.55,19.55,0,0,1-4.37-2.84,14.81,14.81,0,0,1-3.45-4.27,12.51,12.51,0,0,1-1.35-6A12.34,12.34,0,0,1,330,39.07a14.26,14.26,0,0,1,5.9-4.8,20,20,0,0,1,8.42-1.71,19.54,19.54,0,0,1,8.18,1.6,18.54,18.54,0,0,1,5.8,4.06,21.5,21.5,0,0,1,3.59,5l-8,4.55a19.38,19.38,0,0,0-2.45-3.27,10.43,10.43,0,0,0-3.16-2.35,9.12,9.12,0,0,0-4-.85A7.47,7.47,0,0,0,341,42a4.74,4.74,0,0,0-2,1.67,4.14,4.14,0,0,0-.68,2.31,4.65,4.65,0,0,0,.71,2.49,7.35,7.35,0,0,0,2.1,2.1,19.17,19.17,0,0,0,3.48,1.84c1.4.6,3,1.23,4.87,1.89a30,30,0,0,1,4.7,2.13,18,18,0,0,1,4.05,3.13,14.56,14.56,0,0,1,2.84,4.3,15,15,0,0,1-.39,12,14.39,14.39,0,0,1-3.94,4.76,18.17,18.17,0,0,1-5.62,3,20.47,20.47,0,0,1-6.47,1,21.33,21.33,0,0,1-8.57-1.71,21.6,21.6,0,0,1-6.86-4.62,22,22,0,0,1-4.55-6.54L332,66.55A25.7,25.7,0,0,0,335.43,71.38Z"/><path class="cls-5" d="M185.73,106.59a6.69,6.69,0,0,0,1.42,2.25,6.2,6.2,0,0,0,2.11,1.46,6.41,6.41,0,0,0,2.59.52,7.86,7.86,0,0,0,2.13-.27,6.6,6.6,0,0,0,1.75-.77,6.73,6.73,0,0,0,1.4-1.21v1.73a7.28,7.28,0,0,1-2.26,1.38,8.78,8.78,0,0,1-3,.45,7.9,7.9,0,0,1-3.17-.62,7.57,7.57,0,0,1-2.54-1.74,8,8,0,0,1-1.7-2.68,9.64,9.64,0,0,1,0-6.75,7.87,7.87,0,0,1,1.7-2.67,7.45,7.45,0,0,1,2.54-1.75,7.9,7.9,0,0,1,3.17-.62,8.78,8.78,0,0,1,3,.45,7.28,7.28,0,0,1,2.26,1.38v1.71a6.54,6.54,0,0,0-1.41-1.21,6.17,6.17,0,0,0-1.76-.76,8.24,8.24,0,0,0-2.11-.26,6.41,6.41,0,0,0-2.59.52,6.2,6.2,0,0,0-2.11,1.46,6.79,6.79,0,0,0-1.42,2.25,8.21,8.21,0,0,0,0,5.75Z"/><path class="cls-5" d="M201.93,111.92h-1.22V101.14h1.22Zm2.92-9.74a1.88,1.88,0,0,0-.74-.13,1.8,1.8,0,0,0-1.28.45,2.46,2.46,0,0,0-.69,1.19,6.21,6.21,0,0,0-.21,1.67h-.56a6.08,6.08,0,0,1,.4-2.29,3.92,3.92,0,0,1,1.09-1.58,2.32,2.32,0,0,1,1.53-.59,3.14,3.14,0,0,1,1,.15,2.33,2.33,0,0,1,.83.51l-.68,1A3.19,3.19,0,0,0,204.85,102.18Z"/><path class="cls-5" d="M207.72,105.78h8a4,4,0,0,0-.46-2,3.61,3.61,0,0,0-1.28-1.35,3.5,3.5,0,0,0-1.87-.49,4,4,0,0,0-1.93.49,3.75,3.75,0,0,0-1.44,1.41,4.25,4.25,0,0,0-.54,2.2l0,.43a5.29,5.29,0,0,0,.5,2.36,3.63,3.63,0,0,0,3.4,2.14,4.29,4.29,0,0,0,1.74-.32,3.79,3.79,0,0,0,1.22-.82,5.89,5.89,0,0,0,.86-1.09l1,.63a9.06,9.06,0,0,1-1.08,1.34,4.51,4.51,0,0,1-1.52,1,6,6,0,0,1-2.34.39,4.61,4.61,0,0,1-2.55-.74,5.17,5.17,0,0,1-1.79-2,6.21,6.21,0,0,1-.66-2.89c0-.25,0-.5,0-.73a3.71,3.71,0,0,1,.12-.68,5.56,5.56,0,0,1,.95-2.19,4.72,4.72,0,0,1,1.75-1.48,5.16,5.16,0,0,1,2.34-.53,4.75,4.75,0,0,1,2.52.67,4.8,4.8,0,0,1,1.77,1.86,5.76,5.76,0,0,1,.66,2.82c0,.09,0,.19,0,.29a2.54,2.54,0,0,1,0,.29h-9.31Z"/><path class="cls-5" d="M220.39,110.05a2.2,2.2,0,0,0,1,.79,3.38,3.38,0,0,0,1.35.26,3.43,3.43,0,0,0,1.68-.42,3.19,3.19,0,0,0,1.23-1.24,4.05,4.05,0,0,0,.47-2l.28,1a3.42,3.42,0,0,1-.61,2.08,3.8,3.8,0,0,1-1.53,1.23,4.63,4.63,0,0,1-1.85.4,4,4,0,0,1-1.74-.39,3.3,3.3,0,0,1-1.36-1.15,3.19,3.19,0,0,1-.53-1.89,3.09,3.09,0,0,1,1.9-3,5.29,5.29,0,0,1,2.15-.41,6.13,6.13,0,0,1,1.83.25,5.67,5.67,0,0,1,1.27.55,3,3,0,0,1,.68.52v.77a5.25,5.25,0,0,0-1.69-.84,6.51,6.51,0,0,0-1.9-.26,4.27,4.27,0,0,0-1.57.26,2.21,2.21,0,0,0-1.05.78,2.25,2.25,0,0,0-.38,1.33A2.35,2.35,0,0,0,220.39,110.05Zm-.94-7.86a7.93,7.93,0,0,1,1.59-.87,6.12,6.12,0,0,1,2.39-.42,4.9,4.9,0,0,1,2.09.4,3.09,3.09,0,0,1,1.34,1.15,3.41,3.41,0,0,1,.47,1.83v7.64h-1.22v-7.48a3,3,0,0,0-.14-.9,2.34,2.34,0,0,0-.46-.79,2.25,2.25,0,0,0-.86-.56,3.6,3.6,0,0,0-1.31-.21,4.85,4.85,0,0,0-1.43.19,5,5,0,0,0-1.09.44,7.18,7.18,0,0,0-.76.5Z"/><path class="cls-5" d="M233.75,101.14v1.14H229v-1.14ZM232,97.38v14.54h-1.22V97.38Z"/><path class="cls-5" d="M236.06,95.65a.84.84,0,0,1,.62-.26.85.85,0,0,1,.87.87.87.87,0,0,1-.24.61.86.86,0,0,1-.63.26.84.84,0,0,1-.62-.26.88.88,0,0,1-.25-.61A.86.86,0,0,1,236.06,95.65Zm1.23,5.49v10.78h-1.22V101.14Z"/><path class="cls-5" d="M247.9,103.41a2,2,0,0,0-.83-1,2.68,2.68,0,0,0-1.43-.35,3,3,0,0,0-1.63.45,3.17,3.17,0,0,0-1.12,1.18,3.32,3.32,0,0,0-.41,1.68v6.56h-1.22V101.14h1.22v2.25a4.06,4.06,0,0,1,1.36-1.83,3.4,3.4,0,0,1,2.08-.66,3.53,3.53,0,0,1,1.9.48,3,3,0,0,1,1.17,1.37,5,5,0,0,1,.4,2.09v7.08h-1.22V105A4.12,4.12,0,0,0,247.9,103.41Z"/><path class="cls-5" d="M252.86,103.53a4.93,4.93,0,0,1,1.89-2,5.2,5.2,0,0,1,2.62-.68,4.07,4.07,0,0,1,3.31,1.61,5.63,5.63,0,0,1,.93,1.79,7.7,7.7,0,0,1,0,4.46,5.63,5.63,0,0,1-.93,1.79,4.24,4.24,0,0,1-1.44,1.19,4.14,4.14,0,0,1-1.87.42,5.2,5.2,0,0,1-2.62-.68,5.07,5.07,0,0,1-1.89-2,6.78,6.78,0,0,1,0-6Zm.8,9.1a3.5,3.5,0,0,0,.47,1.8,3.43,3.43,0,0,0,1.32,1.27,4.12,4.12,0,0,0,2,.47,4,4,0,0,0,1.9-.48,3.82,3.82,0,0,0,1.46-1.47,5,5,0,0,0,.58-2.53V101.14h1.21v10.55a6.13,6.13,0,0,1-.72,3.1,4.86,4.86,0,0,1-1.9,1.89,5.28,5.28,0,0,1-2.53.64,5.65,5.65,0,0,1-2.62-.59,4.28,4.28,0,0,1-1.77-1.65,4.75,4.75,0,0,1-.63-2.45Zm.31-3.7a3.9,3.9,0,0,0,1.5,1.54,4,4,0,0,0,2.06.54,3.31,3.31,0,0,0,1.44-.34,4.12,4.12,0,0,0,1.23-.94,4.44,4.44,0,0,0,.86-1.43,5.08,5.08,0,0,0,.32-1.82,4.67,4.67,0,0,0-.32-1.73,4.81,4.81,0,0,0-.86-1.41,4,4,0,0,0-1.23-1,3.17,3.17,0,0,0-1.44-.34,4.13,4.13,0,0,0-2.06.53,3.81,3.81,0,0,0-1.5,1.53,4.87,4.87,0,0,0-.57,2.42A4.74,4.74,0,0,0,254,108.93Z"/><path class="cls-5" d="M279.86,103.41a2.08,2.08,0,0,0-.83-1,2.68,2.68,0,0,0-1.43-.35,3,3,0,0,0-1.63.45,3.1,3.1,0,0,0-1.12,1.18,3.33,3.33,0,0,0-.42,1.68v6.56h-1.22V101.14h1.22v2.25a4.15,4.15,0,0,1,1.37-1.83,3.4,3.4,0,0,1,2.08-.66,3.53,3.53,0,0,1,1.9.48,3,3,0,0,1,1.17,1.37,5,5,0,0,1,.4,2.09v7.08h-1.22V105A4.12,4.12,0,0,0,279.86,103.41Z"/><path class="cls-5" d="M286.53,111.43a5,5,0,0,1-1.77-2,6.43,6.43,0,0,1-.64-2.92,6.55,6.55,0,0,1,.37-2.27,5.28,5.28,0,0,1,1.07-1.77,4.76,4.76,0,0,1,1.64-1.16,5.35,5.35,0,0,1,2.1-.41,4.88,4.88,0,0,1,2.59.68,4.65,4.65,0,0,1,1.74,1.88,6,6,0,0,1,.62,2.79c0,.09,0,.2,0,.32a1.3,1.3,0,0,1,0,.26h-9.31v-1h8.4l-.52.73c0-.08.07-.19.11-.33a1.42,1.42,0,0,0,.06-.38,4.13,4.13,0,0,0-.47-2A3.47,3.47,0,0,0,289.3,102a3.83,3.83,0,0,0-1.61.32,3.66,3.66,0,0,0-1.24.9,4.07,4.07,0,0,0-.81,1.41,5.5,5.5,0,0,0-.28,1.83,5.63,5.63,0,0,0,.48,2.39,3.82,3.82,0,0,0,1.36,1.6,3.62,3.62,0,0,0,2.05.58,4.21,4.21,0,0,0,2.17-.54,5,5,0,0,0,1.66-1.69l1,.63a6.16,6.16,0,0,1-2.12,2.08,5.83,5.83,0,0,1-2.83.67A4.69,4.69,0,0,1,286.53,111.43Z"/><path class="cls-5" d="M296.36,101.14l2.9,8.34,3.1-9,3.33,9,2.91-8.37H310l-4.2,11.42-3.38-9-3.19,9L295,101.14Z"/><path class="cls-5" d="M320.27,111.92h-1.22V101.14h1.22Zm2.92-9.74a1.85,1.85,0,0,0-.74-.13,1.78,1.78,0,0,0-1.27.45,2.55,2.55,0,0,0-.7,1.19,6.21,6.21,0,0,0-.21,1.67h-.56a6.08,6.08,0,0,1,.4-2.29,3.92,3.92,0,0,1,1.09-1.58,2.32,2.32,0,0,1,1.54-.59,3.12,3.12,0,0,1,1,.15,2.33,2.33,0,0,1,.83.51l-.68,1A3,3,0,0,0,323.19,102.18Z"/><path class="cls-5" d="M328.07,109.6a2.19,2.19,0,0,0,.83,1.05,2.64,2.64,0,0,0,1.43.36,3,3,0,0,0,1.63-.45,3.08,3.08,0,0,0,1.13-1.19,3.47,3.47,0,0,0,.41-1.67v-6.56h1.22v10.78H333.5v-2.25a4,4,0,0,1-1.34,1.83,3.44,3.44,0,0,1-2.11.66,3.55,3.55,0,0,1-1.9-.49,3.17,3.17,0,0,1-1.17-1.4,5.22,5.22,0,0,1-.4-2.15v-7h1.22V108A4.36,4.36,0,0,0,328.07,109.6Z"/><path class="cls-5" d="M339.64,93.63v18.29h-1.22V93.63Z"/><path class="cls-5" d="M344.83,111.43a4.94,4.94,0,0,1-1.78-2,6.56,6.56,0,0,1-.64-2.92,6.8,6.8,0,0,1,.37-2.27,5.28,5.28,0,0,1,1.07-1.77,4.76,4.76,0,0,1,1.64-1.16,5.35,5.35,0,0,1,2.1-.41,4.88,4.88,0,0,1,2.59.68,4.65,4.65,0,0,1,1.74,1.88,6,6,0,0,1,.62,2.79c0,.09,0,.2,0,.32a1.3,1.3,0,0,1,0,.26h-9.31v-1h8.4l-.52.73c0-.08.07-.19.11-.33a1.42,1.42,0,0,0,.06-.38,4.13,4.13,0,0,0-.47-2,3.52,3.52,0,0,0-1.29-1.36,3.56,3.56,0,0,0-1.88-.49,3.75,3.75,0,0,0-1.6.32,3.6,3.6,0,0,0-1.25.9,4.07,4.07,0,0,0-.81,1.41,5.76,5.76,0,0,0-.28,1.83,5.63,5.63,0,0,0,.48,2.39,3.82,3.82,0,0,0,1.36,1.6,3.62,3.62,0,0,0,2.05.58,4.21,4.21,0,0,0,2.17-.54,5,5,0,0,0,1.66-1.69l1,.63a6.08,6.08,0,0,1-2.12,2.08,5.8,5.8,0,0,1-2.83.67A4.65,4.65,0,0,1,344.83,111.43Z"/><path class="cls-5" d="M355.9,109.93a3.36,3.36,0,0,0,1,.8,3.28,3.28,0,0,0,1.46.3,2.41,2.41,0,0,0,1.58-.49,1.72,1.72,0,0,0,.6-1.41,1.61,1.61,0,0,0-.38-1.09,3.1,3.1,0,0,0-1-.73,11.34,11.34,0,0,0-1.32-.52,10.61,10.61,0,0,1-1.47-.62,3.41,3.41,0,0,1-1.15-1,2.82,2.82,0,0,1,0-3.07,2.82,2.82,0,0,1,1.21-.9,4.18,4.18,0,0,1,1.57-.31,4.24,4.24,0,0,1,1.64.31,4,4,0,0,1,1.24.8,3.53,3.53,0,0,1,.8,1.1l-1,.61a3.7,3.7,0,0,0-1.05-1.22,2.87,2.87,0,0,0-1.76-.52,2.3,2.3,0,0,0-1.34.39,1.35,1.35,0,0,0-.56,1.19,1.58,1.58,0,0,0,.35,1,2.7,2.7,0,0,0,.94.67c.39.17.8.33,1.24.49a11.31,11.31,0,0,1,1.61.7,3.67,3.67,0,0,1,1.19,1,2.38,2.38,0,0,1,.46,1.51,3.14,3.14,0,0,1-.44,1.66,3.11,3.11,0,0,1-1.24,1.11,4,4,0,0,1-1.81.4,4.57,4.57,0,0,1-2-.4,3.94,3.94,0,0,1-1.35-1,3.82,3.82,0,0,1-.72-1.32l1-.56A4.22,4.22,0,0,0,355.9,109.93Z"/></g></g></svg>