<svg xmlns="http://www.w3.org/2000/svg" width="679" height="568" viewBox="0 0 679 568" version="1.1"><path d="M 608 248.207 L 608 394.748 581.750 395.277 C 553.817 395.839, 540.909 397.291, 517.469 402.507 C 489.147 408.809, 457.896 421.769, 433.022 437.527 C 408.737 452.912, 390.265 470.899, 371.444 497.484 L 366.500 504.469 373 499.717 C 443.643 448.066, 519.296 437.857, 604 468.544 C 608.125 470.038, 615.212 472.973, 619.750 475.066 L 628 478.871 628 299.939 L 628 121.007 618.727 112.064 C 613.627 107.145, 609.127 102.793, 608.727 102.394 C 608.327 101.994, 608 167.610, 608 248.207 M 63.750 111.557 L 54 120.338 54 299.682 L 54 479.027 57.750 477.397 C 86.232 465.016, 109.614 457.925, 133.942 454.289 C 150.355 451.835, 189.383 451.848, 204 454.312 C 225.217 457.887, 246.010 464.355, 265.500 473.442 C 276.334 478.492, 297.764 491.283, 307.740 498.652 C 311.723 501.593, 315.227 504, 315.528 504 C 316.359 504, 308.831 493.177, 302.163 484.786 C 269.136 443.224, 223.075 415.654, 164.859 402.601 C 140.576 397.156, 129.087 395.844, 100.753 395.282 L 74.007 394.751 73.753 248.764 L 73.500 102.777 63.750 111.557" stroke="none" fill="#156c97" fill-rule="evenodd"/><path d="M 99 211.511 L 99 370 107.893 370 C 130.635 370, 166.520 375.620, 191.842 383.148 C 241.159 397.809, 286.038 427.358, 319 466.869 C 323.125 471.814, 326.843 475.891, 327.262 475.930 C 327.681 475.968, 327.906 404.112, 327.762 316.250 L 327.500 156.500 324.708 151.200 C 321.292 144.717, 302.778 125.386, 291.036 116.045 C 244.874 79.318, 182.589 58.032, 108.250 53.576 L 99 53.022 99 211.511 M 562.500 55.089 C 496.824 61.062, 450.983 75.663, 408 104.297 C 384.581 119.898, 362.090 141.686, 356.864 153.833 C 355.071 158, 355 164.258, 355 317.617 L 355 477.068 362.750 467.822 C 409.832 411.654, 469.332 380.637, 547.494 371.516 C 554.641 370.682, 565.553 370, 571.744 370 L 583 370 583 212 L 583 54 577.250 54.135 C 574.087 54.209, 567.450 54.639, 562.500 55.089 M 615.500 109 C 617.648 111.200, 619.631 113, 619.906 113 C 620.181 113, 618.648 111.200, 616.500 109 C 614.352 106.800, 612.369 105, 612.094 105 C 611.819 105, 613.352 106.800, 615.500 109 M 88.296 394.744 C 92.583 394.932, 99.333 394.931, 103.296 394.742 C 107.258 394.552, 103.750 394.399, 95.500 394.400 C 87.250 394.401, 84.008 394.556, 88.296 394.744 M 580.250 394.743 C 584.513 394.931, 591.487 394.931, 595.750 394.743 C 600.013 394.556, 596.525 394.402, 588 394.402 C 579.475 394.402, 575.987 394.556, 580.250 394.743 M 507.750 451.737 C 510.637 451.939, 515.362 451.939, 518.250 451.737 C 521.138 451.535, 518.775 451.370, 513 451.370 C 507.225 451.370, 504.863 451.535, 507.750 451.737 M 396.462 466.250 L 391.500 471.500 396.750 466.538 C 399.637 463.808, 402 461.446, 402 461.288 C 402 460.541, 401.074 461.372, 396.462 466.250" stroke="none" fill="#3ba5d5" fill-rule="evenodd"/></svg>