<svg xmlns="http://www.w3.org/2000/svg" viewBox="0 0 5120 5120" width="1.8em" height="1.8em">
<path fill="currentColor" d="M2320 5109 c-472 -47 -926 -224 -1305 -509 -129 -97 -165 -135 -165
-171 0 -41 14 -64 48 -78 39 -16 62 -6 157 71 430 346 945 529 1500 530 278 1
497 -33 750 -117 369 -121 665 -305 945 -585 280 -280 464 -576 585 -945 83
-250 118 -471 118 -745 0 -274 -35 -495 -118 -745 -121 -369 -305 -665 -585
-945 -280 -280 -576 -464 -945 -585 -250 -83 -471 -118 -745 -118 -274 0 -495
35 -745 118 -369 121 -665 305 -945 585 -280 280 -464 576 -585 945 -84 253
-118 472 -117 750 1 555 184 1070 530 1500 77 95 87 118 71 157 -14 34 -37 48
-78 48 -36 0 -74 -36 -171 -165 -507 -675 -653 -1549 -390 -2345 194 -590 590
-1082 1130 -1404 292 -175 632 -291 990 -338 123 -16 497 -16 620 0 623 82
1150 356 1581 820 239 256 425 575 539 922 91 274 124 491 124 800 0 228 -9
329 -50 530 -141 689 -583 1304 -1204 1674 -289 173 -634 291 -980 336 -117
15 -445 21 -560 9z" />
<path fill="currentColor" d="M2310 4779 c-743 -84 -1408 -548 -1745 -1219 -315 -627 -315 -1373 0
-2000 246 -490 675 -881 1184 -1079 665 -259 1417 -183 2021 204 82 53 187
131 238 179 53 49 38 127 -27 141 -37 8 -54 -1 -156 -80 -288 -223 -630 -366
-995 -416 -139 -19 -440 -17 -577 4 -437 68 -839 273 -1153 587 -314 314 -519
716 -587 1153 -24 153 -24 461 0 614 68 437 273 839 587 1153 258 259 569 440
918 536 192 52 318 68 542 68 224 0 350 -16 542 -68 349 -96 660 -277 918
-536 314 -314 519 -716 587 -1153 21 -137 23 -438 4 -577 -50 -365 -193 -707
-416 -995 -79 -102 -88 -119 -80 -156 14 -65 92 -80 141 -26 48 50 126 155
179 237 387 603 463 1356 205 2018 -302 776 -1014 1321 -1842 1411 -112 13
-378 12 -488 0z" />
<path fill="currentColor" d="M2454 4240 c-71 -28 -128 -81 -161 -147 -23 -47 -27 -71 -27 -133 0
-89 26 -152 86 -211 61 -59 120 -83 208 -83 88 0 147 24 208 83 60 59 86 122
87 211 0 85 -21 142 -74 203 -74 83 -222 119 -327 77z m184 -168 c42 -28 65
-94 51 -146 -5 -19 -25 -48 -45 -65 -66 -58 -165 -36 -205 46 -17 35 -19 48
-9 81 14 54 37 80 85 97 43 16 86 11 123 -13z" />
<path fill="currentColor" d="M1992 4200 c-30 -28 -36 -62 -18 -98 25 -47 75 -57 120 -21 20 16 26
29 26 59 0 68 -79 105 -128 60z" />
<path fill="currentColor" d="M3359 3989 c-94 -15 -178 -74 -219 -155 -21 -42 -25 -63 -25 -139 0
-109 19 -151 98 -222 28 -26 113 -109 187 -185 161 -164 193 -182 310 -176 92
4 157 34 209 96 83 99 97 248 33 352 -66 106 -284 324 -392 391 -54 34 -134
49 -201 38z m105 -172 c17 -13 17 -15 2 -45 -20 -40 -13 -75 22 -103 31 -24
74 -20 107 11 l21 20 50 -53 c63 -65 138 -155 153 -184 16 -31 14 -89 -4 -124
-39 -74 -151 -92 -209 -34 -15 16 -15 19 9 47 30 36 32 67 4 102 -24 31 -81
36 -117 10 -22 -15 -25 -14 -88 45 -36 34 -75 68 -89 77 -50 33 -69 118 -40
175 31 59 132 90 179 56z" />
<path fill="currentColor" d="M1349 3802 c-76 -38 -265 -294 -356 -482 -58 -120 -114 -279 -116
-329 -2 -67 86 -107 130 -58 12 12 35 65 52 117 66 198 172 385 314 550 90
105 100 124 82 167 -18 42 -62 57 -106 35z" />
<path fill="currentColor" d="M1862 3790 c-37 -15 -142 -89 -223 -157 -289 -242 -480 -636 -491
-1015 -3 -79 -1 -88 21 -112 16 -17 35 -26 55 -26 59 1 86 43 86 133 0 76 26
223 56 319 86 274 268 517 505 673 86 56 99 71 99 105 0 42 -9 59 -41 75 -32
17 -35 17 -67 5z" />
<path fill="currentColor" d="M1767 3303 c-119 -125 -210 -286 -257 -454 -24 -88 -46 -265 -36
-302 15 -62 80 -85 129 -47 22 17 26 31 32 98 6 77 31 222 40 230 2 3 30 -6
62 -18 99 -39 92 -31 77 -102 -34 -159 -10 -328 68 -488 45 -91 64 -117 142
-196 79 -78 105 -97 196 -142 120 -58 218 -82 340 -82 86 0 205 21 267 46 43
18 39 21 96 -78 l27 -48 -32 -13 c-18 -8 -57 -22 -85 -31 -86 -28 -115 -85
-72 -140 26 -33 62 -34 155 -2 139 47 275 128 377 224 46 44 57 61 57 86 0 42
-23 73 -59 81 -37 8 -60 -4 -130 -67 -30 -26 -60 -48 -65 -48 -6 0 -27 30 -47
66 l-36 66 82 82 c140 140 212 301 222 496 8 147 -13 244 -79 380 -45 91 -64
117 -142 196 -79 78 -105 97 -196 142 -122 59 -218 82 -347 82 -248 -1 -498
-137 -629 -344 -16 -25 -34 -46 -40 -46 -10 0 -135 49 -143 55 -7 7 69 122
117 175 63 71 75 94 67 131 -8 36 -39 59 -81 59 -25 0 -42 -10 -77 -47z m917
-158 c224 -47 414 -237 461 -461 43 -201 -16 -396 -165 -544 -238 -239 -602
-239 -840 0 -239 238 -239 602 0 840 148 149 343 208 544 165z" />
<path fill="currentColor" d="M3913 2690 c-142 -29 -219 -120 -248 -291 -9 -52 -35 -148 -58 -214
-53 -155 -56 -231 -14 -317 92 -188 353 -224 489 -69 105 119 210 545 169 688
-36 131 -202 230 -338 203z m118 -175 c39 -21 69 -71 69 -115 0 -40 -23 -171
-43 -245 l-13 -50 -42 3 c-52 4 -92 -30 -92 -78 0 -31 30 -72 60 -82 26 -8
-15 -54 -65 -73 -59 -23 -113 -9 -148 38 -40 53 -39 80 6 214 l41 123 38 0
c43 0 74 24 84 66 8 33 -21 75 -62 89 -23 8 -29 14 -24 30 21 79 116 118 191
80z" />
<path fill="currentColor" d="M1325 1997 c-87 -35 -147 -93 -179 -175 -30 -78 -20 -193 22 -262 73
-117 306 -346 408 -399 145 -76 331 -18 404 125 21 42 25 63 25 139 0 109 -19
151 -98 222 -28 26 -113 109 -187 185 -156 158 -190 178 -298 177 -37 0 -80
-6 -97 -12z m148 -156 c13 -5 31 -17 41 -26 15 -16 15 -19 -9 -47 -30 -36 -32
-67 -4 -102 24 -31 81 -36 117 -10 22 15 25 14 88 -45 36 -34 75 -68 89 -77
50 -33 69 -118 40 -175 -31 -59 -132 -90 -179 -56 -17 13 -17 15 -2 45 20 40
13 75 -22 103 -31 24 -74 20 -107 -11 l-21 -20 -50 53 c-63 65 -138 155 -153
184 -16 31 -14 89 4 124 30 57 105 84 168 60z" />
<path fill="currentColor" d="M3125 1443 c-135 -69 -308 -118 -454 -128 -47 -3 -101 -8 -119 -11
-69 -11 -96 -88 -46 -135 24 -23 32 -24 122 -21 182 6 380 57 560 144 96 47
126 79 118 122 -15 76 -73 85 -181 29z" />
<path fill="currentColor" d="M2176 979 c-35 -28 -36 -80 -1 -114 63 -64 163 12 121 93 -25 47 -75
57 -120 21z" />
</svg>